# xmcd
#
# Track frame offsets: 
#        150
#        19345
#        40402
#        53750
#        65218
#        86205
#        100068
#        126253
#        142015
#        161694
#        174118
#        187558
#        197277
#        211527
#        225008
#        236015
#        251001
#        274000
#        295134
#        309502
#
# Disc length: 4690 seconds
#
# Revision: 0
# Processed by: cddbd v1.5.2PL0 Copyright (c) Steve Scherf et al.
# Submitted via: ExactAudioCopy v0.99pb5
#
DISCID=0d125014
DTITLE=Elias DJ - Transiberian Bouncin' Feet
DYEAR=2006
DGENRE=House
TTITLE0=Oliver K - You Dj
TTITLE1=Dj Chumbe - Play This Beat
TTITLE2=Indiana Bounce - Yellow Dog
TTITLE3=Dj Pok - Reputation
TTITLE4=Dj Veci - Upside Down
TTITLE5=Oliver K - Bump-ing (6:12)
TTITLE6=Dj Epe and Elias Dj - Like Da Bass
TTITLE7=CrazyNoisers - Temple Of Dance
TTITLE8=DJ OverDrive - Thiz Rox
TTITLE9=Dj Piju vs Dj Pok - Ateam
TTITLE10=CrazyNoisers - Work Out!
TTITLE11=Crazy Klubber - Get Ready
TTITLE12=Dj Veci - What Time Is It
TTITLE13=Dj Piju - Beat Back
TTITLE14=CrazyNoisers - The Panik's Seeds
TTITLE15=Indiana Bounce - Everybody Salsa
TTITLE16=Oliver K - Man Project
TTITLE17=Gorka 666 - Wizards and Clowns
TTITLE18=Dj Muli - Latino Activo
TTITLE19=Megamix by Elias Dj
EXTD=
EXTT0=
EXTT1=
EXTT2=
EXTT3=
EXTT4=
EXTT5=
EXTT6=
EXTT7=
EXTT8=
EXTT9=
EXTT10=
EXTT11=
EXTT12=
EXTT13=
EXTT14=
EXTT15=
EXTT16=
EXTT17=
EXTT18=
EXTT19=
PLAYORDER=
